<?xml version="1.0" encoding="UTF-8"?>
<svg id="Layer_2" data-name="Layer 2" xmlns="http://www.w3.org/2000/svg" xmlns:xlink="http://www.w3.org/1999/xlink" viewBox="0 0 130.73 50">
  <defs>
    <style>
      .cls-1 {
        fill: #fff;
      }

      .cls-2 {
        fill: url(#linear-gradient);
      }
    </style>
    <linearGradient id="linear-gradient" x1="23.26" y1="-16.3" x2="107.75" y2="68.19" gradientUnits="userSpaceOnUse">
      <stop offset="0" stop-color="#00b8f1"/>
      <stop offset=".09" stop-color="#10b6ee"/>
      <stop offset=".25" stop-color="#3bb1e6"/>
      <stop offset=".35" stop-color="#58afe2"/>
      <stop offset=".48" stop-color="#679ed6"/>
      <stop offset=".73" stop-color="#9172b9"/>
      <stop offset="1" stop-color="#c53d95"/>
    </linearGradient>
  </defs>
  <g id="Layer_1-2" data-name="Layer 1">
    <g>
      <g>
        <path class="cls-1" d="M40.86,38.83v5.38c0,.55-.45,1-1,1h-22.37c-.55,0-1-.45-1-1V5.79c0-.55.45-1,1-1h5.49c.55,0,1,.45,1,1v31.03c0,.55.45,1,1,1h14.87c.55,0,1,.45,1,1Z"/>
        <path class="cls-1" d="M51.51,45.21h-5.49c-.55,0-1-.45-1-1V5.79c0-.55.45-1,1-1h5.49c.55,0,1,.45,1,1v38.42c0,.55-.45,1-1,1Z"/>
        <path class="cls-1" d="M103.15,45.21h-5.49c-.55,0-1-.45-1-1V5.79c0-.55.45-1,1-1h5.49c.55,0,1,.45,1,1v38.42c0,.55-.45,1-1,1ZM119.79,5.17c.19-.24.48-.38.79-.38h7.9l-14.51,18.78c-.29.37-.28.89.02,1.25l16.76,20.4h-8.46c-.3,0-.59-.14-.78-.37l-16.15-20.02c-.29-.36-.3-.88,0-1.25l14.45-18.4Z"/>
        <path class="cls-1" d="M6.55,45.21H1.06c-.55,0-1-.45-1-1V15.7c0-.55.45-1,1-1h5.49c.55,0,1,.45,1,1v28.51c0,.55-.45,1-1,1ZM0,8.54c0-1.03.36-1.91,1.08-2.65.72-.74,1.63-1.1,2.73-1.1s2.01.34,2.73,1.02c.72.68,1.08,1.54,1.08,2.56,0,1.1-.35,2.01-1.05,2.73-.7.72-1.62,1.08-2.76,1.08s-2.06-.34-2.76-1.02c-.7-.68-1.05-1.55-1.05-2.62Z"/>
        <path class="cls-1" d="M86,4.79h5.49c.55,0,1,.45,1,1v32.2c0,.87-1.04,1.33-1.68.74l-12.36-11.29-14.04-12.82-7.17-6.55c-.21-.19-.33-.46-.33-.74V1.01c0-.87,1.04-1.33,1.68-.74l26.39,24.11V5.79c0-.55.45-1,1-1ZM64.17,44.21v-18.59l26.39,24.11c.64.59,1.68.13,1.68-.74v-6.31c0-.28-.12-.55-.33-.74l-7.17-6.55-14.04-12.82-12.36-11.29c-.64-.59-1.68-.13-1.68.74v32.2c0,.55.45,1,1,1h5.49c.55,0,1-.45,1-1Z"/>
      </g>
      <g>
        <path class="cls-2" d="M40.86,38.83v5.38c0,.55-.45,1-1,1h-22.37c-.55,0-1-.45-1-1V5.79c0-.55.45-1,1-1h5.49c.55,0,1,.45,1,1v31.03c0,.55.45,1,1,1h14.87c.55,0,1,.45,1,1Z"/>
        <path class="cls-2" d="M51.51,45.21h-5.49c-.55,0-1-.45-1-1V5.79c0-.55.45-1,1-1h5.49c.55,0,1,.45,1,1v38.42c0,.55-.45,1-1,1Z"/>
        <path class="cls-2" d="M103.15,45.21h-5.49c-.55,0-1-.45-1-1V5.79c0-.55.45-1,1-1h5.49c.55,0,1,.45,1,1v38.42c0,.55-.45,1-1,1ZM119.79,5.17c.19-.24.48-.38.79-.38h7.9l-14.51,18.78c-.29.37-.28.89.02,1.25l16.76,20.4h-8.46c-.3,0-.59-.14-.78-.37l-16.15-20.02c-.29-.36-.3-.88,0-1.25l14.45-18.4Z"/>
        <path class="cls-2" d="M6.55,45.21H1.06c-.55,0-1-.45-1-1V15.7c0-.55.45-1,1-1h5.49c.55,0,1,.45,1,1v28.51c0,.55-.45,1-1,1ZM0,8.54c0-1.03.36-1.91,1.08-2.65.72-.74,1.63-1.1,2.73-1.1s2.01.34,2.73,1.02c.72.68,1.08,1.54,1.08,2.56,0,1.1-.35,2.01-1.05,2.73-.7.72-1.62,1.08-2.76,1.08s-2.06-.34-2.76-1.02c-.7-.68-1.05-1.55-1.05-2.62Z"/>
        <path class="cls-2" d="M86,4.79h5.49c.55,0,1,.45,1,1v32.2c0,.87-1.04,1.33-1.68.74l-12.36-11.29-14.04-12.82-7.17-6.55c-.21-.19-.33-.46-.33-.74V1.01c0-.87,1.04-1.33,1.68-.74l26.39,24.11V5.79c0-.55.45-1,1-1ZM64.17,44.21v-18.59l26.39,24.11c.64.59,1.68.13,1.68-.74v-6.31c0-.28-.12-.55-.33-.74l-7.17-6.55-14.04-12.82-12.36-11.29c-.64-.59-1.68-.13-1.68.74v32.2c0,.55.45,1,1,1h5.49c.55,0,1-.45,1-1Z"/>
      </g>
    </g>
  </g>
</svg>