<?xml version="1.0" encoding="UTF-8"?>
<svg id="Layer_2" data-name="Layer 2" xmlns="http://www.w3.org/2000/svg" xmlns:xlink="http://www.w3.org/1999/xlink" viewBox="0 0 275.79 141.15">
  <defs>
    <style>
      .cls-1 {
        fill: #231f20;
      }

      .cls-2 {
        fill: #fff;
      }

      .cls-3 {
        fill: url(#linear-gradient);
      }
    </style>
    <linearGradient id="linear-gradient" x1="49.07" y1="-34.38" x2="227.31" y2="143.86" gradientUnits="userSpaceOnUse">
      <stop offset=".05" stop-color="#00b9f2"/>
      <stop offset=".12" stop-color="#10b7ef"/>
      <stop offset=".25" stop-color="#3bb2e7"/>
      <stop offset=".32" stop-color="#58b0e3"/>
      <stop offset=".45" stop-color="#679fd7"/>
      <stop offset=".71" stop-color="#9173ba"/>
      <stop offset="1" stop-color="#c63d96"/>
    </linearGradient>
  </defs>
  <g id="Layer_1-2" data-name="Layer 1">
    <g>
      <rect x=".06" y="114.34" width="275.68" height="26.81" rx="5.26" ry="5.26"/>
      <g>
        <path class="cls-2" d="M38.24,119.48v2.22h-4.42v14.37h-2.72v-14.37h-4.44v-2.22h11.57Z"/>
        <path class="cls-2" d="M51.45,135.14c-1.3-.72-2.32-1.73-3.08-3.03-.76-1.3-1.13-2.76-1.13-4.38s.38-3.08,1.13-4.37c.76-1.29,1.78-2.29,3.08-3.02,1.3-.72,2.72-1.09,4.26-1.09s2.99.36,4.28,1.09c1.3.72,2.32,1.73,3.07,3.02.75,1.29,1.12,2.74,1.12,4.37s-.37,3.08-1.12,4.38c-.75,1.3-1.77,2.31-3.07,3.03-1.3.72-2.72,1.09-4.28,1.09s-2.96-.36-4.26-1.09ZM58.65,133.11c.86-.5,1.53-1.22,2.02-2.15.48-.93.73-2.01.73-3.23s-.24-2.3-.73-3.22c-.49-.92-1.16-1.63-2.02-2.12s-1.84-.74-2.94-.74-2.08.25-2.93.74c-.86.49-1.53,1.2-2.02,2.12-.49.92-.73,2-.73,3.22s.24,2.3.73,3.23c.49.93,1.16,1.65,2.02,2.15.86.5,1.84.75,2.93.75s2.08-.25,2.94-.75Z"/>
        <path class="cls-2" d="M98.52,128.95c.62.78.93,1.66.93,2.65,0,.84-.22,1.6-.66,2.28-.44.68-1.07,1.21-1.9,1.6-.83.39-1.79.58-2.89.58h-6.63v-16.58h6.32c1.13,0,2.1.19,2.91.57.81.38,1.42.89,1.84,1.54.41.64.62,1.36.62,2.16,0,.95-.25,1.75-.76,2.39-.51.64-1.19,1.11-2.05,1.41.89.16,1.65.63,2.27,1.41ZM90.1,126.44h3.36c.89,0,1.59-.2,2.09-.61.5-.41.75-.99.75-1.75s-.25-1.33-.75-1.75-1.2-.63-2.09-.63h-3.36v4.75ZM95.95,133.17c.53-.45.79-1.07.79-1.86s-.28-1.46-.84-1.93-1.3-.72-2.22-.72h-3.58v5.18h3.67c.92,0,1.65-.22,2.17-.67Z"/>
        <path class="cls-2" d="M112.29,121.67v4.87h5.73v2.22h-5.73v5.08h6.44v2.22h-9.16v-16.61h9.16v2.22h-6.44Z"/>
        <path class="cls-2" d="M145.06,135.64c-.89-.39-1.59-.94-2.1-1.66-.51-.72-.76-1.55-.76-2.51h2.91c.06.72.35,1.3.85,1.77.5.46,1.21.69,2.11.69s1.67-.23,2.19-.68.79-1.04.79-1.75c0-.56-.16-1.01-.49-1.36s-.73-.62-1.22-.81c-.49-.19-1.16-.4-2.02-.62-1.08-.29-1.96-.58-2.64-.87-.68-.29-1.25-.75-1.73-1.37-.48-.62-.72-1.45-.72-2.48,0-.95.24-1.79.72-2.51s1.15-1.26,2-1.65c.86-.38,1.85-.57,2.98-.57,1.61,0,2.92.4,3.95,1.21,1.03.8,1.59,1.9,1.71,3.3h-3.01c-.05-.6-.33-1.12-.86-1.55-.52-.43-1.22-.64-2.08-.64-.78,0-1.42.2-1.91.6-.49.4-.74.97-.74,1.72,0,.51.16.93.47,1.25.31.33.7.58,1.18.78.48.19,1.13.4,1.96.62,1.1.3,1.99.6,2.68.91.69.3,1.28.77,1.77,1.4.48.63.73,1.47.73,2.52,0,.84-.23,1.64-.68,2.39s-1.11,1.35-1.98,1.8c-.87.45-1.89.68-3.07.68-1.11,0-2.12-.19-3.01-.58Z"/>
        <path class="cls-2" d="M181.64,119.48v16.58h-2.72v-11.36l-5.06,11.36h-1.89l-5.08-11.36v11.36h-2.72v-16.58h2.94l5.82,13.01,5.8-13.01h2.91Z"/>
        <path class="cls-2" d="M202.37,132.67h-6.94l-1.19,3.39h-2.84l5.94-16.61h3.15l5.94,16.61h-2.86l-1.19-3.39ZM201.61,130.45l-2.7-7.71-2.72,7.71h5.42Z"/>
        <path class="cls-2" d="M224.78,136.06l-3.82-6.63h-2.08v6.63h-2.72v-16.58h5.73c1.27,0,2.35.22,3.23.67s1.54,1.04,1.98,1.79.66,1.58.66,2.51c0,1.08-.31,2.06-.94,2.95s-1.59,1.48-2.9,1.8l4.1,6.87h-3.25ZM218.89,127.26h3.01c1.02,0,1.79-.25,2.3-.76.52-.51.77-1.19.77-2.05s-.25-1.53-.76-2.02c-.51-.49-1.28-.73-2.31-.73h-3.01v5.56Z"/>
        <path class="cls-2" d="M249.12,119.48v2.22h-4.41v14.37h-2.72v-14.37h-4.44v-2.22h11.57Z"/>
      </g>
      <g>
        <g>
          <path class="cls-1" d="M86.2,81.91v11.36c0,1.17-.95,2.12-2.12,2.12h-47.19c-1.17,0-2.12-.95-2.12-2.12V12.21c0-1.17.95-2.12,2.12-2.12h11.59c1.17,0,2.12.95,2.12,2.12v65.46c0,1.17.95,2.12,2.12,2.12h31.37c1.17,0,2.12.95,2.12,2.12Z"/>
          <path class="cls-1" d="M108.67,95.38h-11.59c-1.17,0-2.12-.95-2.12-2.12V12.21c0-1.17.95-2.12,2.12-2.12h11.59c1.17,0,2.12.95,2.12,2.12v81.05c0,1.17-.95,2.12-2.12,2.12Z"/>
          <path class="cls-1" d="M217.6,95.38h-11.59c-1.17,0-2.12-.95-2.12-2.12V12.21c0-1.17.95-2.12,2.12-2.12h11.59c1.17,0,2.12.95,2.12,2.12v81.05c0,1.17-.95,2.12-2.12,2.12ZM252.7,10.91c.4-.51,1.01-.81,1.66-.81h16.66l-30.62,39.62c-.6.78-.59,1.87.04,2.64l35.35,43.03h-17.84c-.64,0-1.25-.29-1.65-.79l-34.08-42.23c-.62-.77-.63-1.86-.02-2.64l30.49-38.82Z"/>
          <path class="cls-1" d="M13.82,95.38H2.23c-1.17,0-2.12-.95-2.12-2.12v-60.14c0-1.17.95-2.12,2.12-2.12h11.59c1.17,0,2.12.95,2.12,2.12v60.14c0,1.17-.95,2.12-2.12,2.12ZM0,18.01c0-2.17.76-4.03,2.27-5.58,1.51-1.55,3.43-2.33,5.76-2.33s4.25.72,5.76,2.15c1.51,1.44,2.27,3.24,2.27,5.41,0,2.33-.74,4.25-2.21,5.76-1.47,1.51-3.41,2.27-5.82,2.27s-4.35-.72-5.82-2.15c-1.47-1.43-2.21-3.28-2.21-5.53Z"/>
          <path class="cls-1" d="M181.43,10.1h11.59c1.17,0,2.12.95,2.12,2.12v67.92c0,1.84-2.19,2.8-3.54,1.56l-26.07-23.81-29.61-27.05-15.13-13.83c-.44-.4-.69-.97-.69-1.56V2.12c0-1.84,2.19-2.8,3.54-1.56l55.68,50.87V12.21c0-1.17.95-2.12,2.12-2.12ZM135.37,93.27v-39.21l55.68,50.87c1.36,1.24,3.54.28,3.54-1.56v-13.32c0-.59-.25-1.16-.69-1.56l-15.13-13.83-29.61-27.05-26.07-23.81c-1.36-1.24-3.54-.28-3.54,1.56v67.92c0,1.17.95,2.12,2.12,2.12h11.59c1.17,0,2.12-.95,2.12-2.12Z"/>
        </g>
        <g>
          <path class="cls-3" d="M86.2,81.91v11.36c0,1.17-.95,2.12-2.12,2.12h-47.19c-1.17,0-2.12-.95-2.12-2.12V12.21c0-1.17.95-2.12,2.12-2.12h11.59c1.17,0,2.12.95,2.12,2.12v65.46c0,1.17.95,2.12,2.12,2.12h31.37c1.17,0,2.12.95,2.12,2.12Z"/>
          <path class="cls-3" d="M108.67,95.38h-11.59c-1.17,0-2.12-.95-2.12-2.12V12.21c0-1.17.95-2.12,2.12-2.12h11.59c1.17,0,2.12.95,2.12,2.12v81.05c0,1.17-.95,2.12-2.12,2.12Z"/>
          <path class="cls-3" d="M217.6,95.38h-11.59c-1.17,0-2.12-.95-2.12-2.12V12.21c0-1.17.95-2.12,2.12-2.12h11.59c1.17,0,2.12.95,2.12,2.12v81.05c0,1.17-.95,2.12-2.12,2.12ZM252.7,10.91c.4-.51,1.01-.81,1.66-.81h16.66l-30.62,39.62c-.6.78-.59,1.87.04,2.64l35.35,43.03h-17.84c-.64,0-1.25-.29-1.65-.79l-34.08-42.23c-.62-.77-.63-1.86-.02-2.64l30.49-38.82Z"/>
          <path class="cls-3" d="M13.82,95.38H2.23c-1.17,0-2.12-.95-2.12-2.12v-60.14c0-1.17.95-2.12,2.12-2.12h11.59c1.17,0,2.12.95,2.12,2.12v60.14c0,1.17-.95,2.12-2.12,2.12ZM0,18.01c0-2.17.76-4.03,2.27-5.58,1.51-1.55,3.43-2.33,5.76-2.33s4.25.72,5.76,2.15c1.51,1.44,2.27,3.24,2.27,5.41,0,2.33-.74,4.25-2.21,5.76-1.47,1.51-3.41,2.27-5.82,2.27s-4.35-.72-5.82-2.15c-1.47-1.43-2.21-3.28-2.21-5.53Z"/>
          <path class="cls-3" d="M181.43,10.1h11.59c1.17,0,2.12.95,2.12,2.12v67.92c0,1.84-2.19,2.8-3.54,1.56l-26.07-23.81-29.61-27.05-15.13-13.83c-.44-.4-.69-.97-.69-1.56V2.12c0-1.84,2.19-2.8,3.54-1.56l55.68,50.87V12.21c0-1.17.95-2.12,2.12-2.12ZM135.37,93.27v-39.21l55.68,50.87c1.36,1.24,3.54.28,3.54-1.56v-13.32c0-.59-.25-1.16-.69-1.56l-15.13-13.83-29.61-27.05-26.07-23.81c-1.36-1.24-3.54-.28-3.54,1.56v67.92c0,1.17.95,2.12,2.12,2.12h11.59c1.17,0,2.12-.95,2.12-2.12Z"/>
        </g>
      </g>
    </g>
  </g>
</svg>